<?xml version="1.0" encoding="UTF-8" standalone="no"?>
<svg
   xmlns:dc="http://purl.org/dc/elements/1.1/"
   xmlns:cc="http://creativecommons.org/ns#"
   xmlns:rdf="http://www.w3.org/1999/02/22-rdf-syntax-ns#"
   xmlns:svg="http://www.w3.org/2000/svg"
   xmlns="http://www.w3.org/2000/svg"
   xmlns:sodipodi="http://sodipodi.sourceforge.net/DTD/sodipodi-0.dtd"
   xmlns:inkscape="http://www.inkscape.org/namespaces/inkscape"
   viewBox="0 0 9.0311117 1.4109616"
   id="svg2"
   version="1.1"
   inkscape:version="0.91 r13725"
   sodipodi:docname="glasses.svg"
   inkscape:export-filename="/home/hellocatfood/Desktop/Portrait of Lord Hannay/dealwithit.png"
   inkscape:export-xdpi="3000"
   inkscape:export-ydpi="3000">
  <metadata
     id="metadata215">
    <rdf:RDF>
      <cc:Work
         rdf:about="">
        <dc:format>image/svg+xml</dc:format>
        <dc:type
           rdf:resource="http://purl.org/dc/dcmitype/StillImage" />
        <dc:title />
      </cc:Work>
    </rdf:RDF>
  </metadata>
  <defs
     id="defs213" />
  <sodipodi:namedview
     pagecolor="#ffffff"
     bordercolor="#666666"
     borderopacity="1"
     objecttolerance="10"
     gridtolerance="10"
     guidetolerance="10"
     inkscape:pageopacity="0"
     inkscape:pageshadow="2"
     inkscape:window-width="1728"
     inkscape:window-height="1089"
     id="namedview211"
     showgrid="false"
     inkscape:zoom="90.509668"
     inkscape:cx="6.1608227"
     inkscape:cy="1.4573847"
     inkscape:window-x="-8"
     inkscape:window-y="-8"
     inkscape:window-maximized="1"
     inkscape:current-layer="svg2"
     inkscape:snap-bbox="true"
     inkscape:bbox-paths="true"
     inkscape:bbox-nodes="true"
     inkscape:snap-bbox-edge-midpoints="true"
     inkscape:object-paths="true"
     inkscape:snap-intersection-paths="true"
     inkscape:object-nodes="true"
     fit-margin-top="0"
     fit-margin-left="0"
     fit-margin-right="0"
     fit-margin-bottom="0"
     showguides="false"
     inkscape:guide-bbox="true">
    <sodipodi:guide
       position="8.396893,2.0108349"
       orientation="1,0"
       id="guide3438" />
    <sodipodi:guide
       position="2.2207572,2.6958446"
       orientation="1,0"
       id="guide3440" />
    <sodipodi:guide
       position="5.855728,0.61871842"
       orientation="1,0"
       id="guide3442" />
  </sodipodi:namedview>
  <path
     style="fill-rule:evenodd"
     d="m 0.5644531,0 0,0.28125 0.28125,0 0.2832031,0 0.28125,0 0.2832032,0 0.28125,0 0.2832031,0 0,0.28320312 0.28125,0 0,0.28125 0.2832031,0 0,0.28320308 0.28125,0 0,0.28125 0.2832032,0 0.28125,0 0.2832031,0 0.28125,0 0.2832031,0 0.28125,0 0.2832031,0 0,-0.28125 0.28125,0 0,-0.28320308 0.2832031,0 0,-0.28125 0,-0.28320312 0.28125,0 0,0.28320312 0.2832032,0 0,0.28125 0.28125,0 0,0.28320308 0.2832031,0 0.28125,0 0.2832031,0 0.28125,0 0.2832032,0 0.28125,0 0.2832031,0 0,-0.28320308 0.28125,0 0,-0.28125 0.2832031,0 0,-0.28320312 L 9.03125,0 8.7480469,0 8.4667969,0 8.1835938,0 7.9023438,0 7.6191406,0 7.3378906,0 7.0546875,0 6.7734375,0 6.4902344,0 6.2089844,0 5.9257812,0 5.6445312,0 5.3613281,0 5.0800781,0 4.796875,0 4.515625,0 4.2324219,0 3.9511719,0 3.6679688,0 3.3867188,0 3.1035156,0 2.8222656,0 2.5390625,0 2.2578125,0 1.9746094,0 1.6933594,0 1.4101562,0 1.1289062,0 0.8457031,0 0.5644531,0 Z m 0,0.28125 -0.2832031,0 -0.28125,0 0,0.28320312 0.28125,0 0.2832031,0 0,-0.28320312 z m 2.2578125,0 0.28125,0 0,0.28320312 0.2832032,0 0,-0.28320312 0.28125,0 0,0.28320312 0.2832031,0 0,0.28125 0.28125,0 0,0.28320308 -0.28125,0 0,-0.28320308 -0.2832031,0 0,0.28320308 -0.28125,0 0,-0.28320308 -0.2832032,0 0,-0.28125 -0.28125,0 0,-0.28320312 z m 0.5644532,0.56445312 0.28125,0 0,-0.28125 -0.28125,0 0,0.28125 z M 6.4902344,0.28125 l 0.2832031,0 0,0.28320312 0.28125,0 0,-0.28320312 0.2832031,0 0,0.28320312 0.28125,0 0,0.28125 -0.28125,0 0,-0.28125 -0.2832031,0 0,0.28125 -0.28125,0 0,-0.28125 -0.2832031,0 0,-0.28320312 z"
     id="path4651"
     inkscape:connector-curvature="0" />
  <path
     style="fill:#ffffff;fill-opacity:1;fill-rule:evenodd"
     d="m 2.8222656,0.28125 0,0.28320312 0.28125,0 0,-0.28320312 -0.28125,0 z m 0.28125,0.28320312 0,0.28125 0.2832032,0 0,-0.28125 -0.2832032,0 z m 0.2832032,0 0.28125,0 0,-0.28320312 -0.28125,0 0,0.28320312 z m 0.28125,0 0,0.28125 0.2832031,0 0,-0.28125 -0.2832031,0 z m 0.2832031,0.28125 0,0.28320308 0.28125,0 0,-0.28320308 -0.28125,0 z m -0.2832031,0 -0.28125,0 0,0.28320308 0.28125,0 0,-0.28320308 z M 6.4902344,0.28125 l 0,0.28320312 0.2832031,0 0,-0.28320312 -0.2832031,0 z m 0.2832031,0.28320312 0,0.28125 0.28125,0 0,-0.28125 -0.28125,0 z m 0.28125,0 0.2832031,0 0,-0.28320312 -0.2832031,0 0,0.28320312 z m 0.2832031,0 0,0.28125 0.28125,0 0,-0.28125 -0.28125,0 z"
     id="path4723"
     inkscape:connector-curvature="0" />
</svg>
